<svg xmlns="http://www.w3.org/2000/svg" viewBox="0 0 362.21 362.21"><defs><style>.cls-1{fill:#efefef;}</style></defs><g id="Layer_2" data-name="Layer 2"><g id="Layer_1-2" data-name="Layer 1"><path class="cls-1" d="M181.11,362.21C81.24,362.21,0,281,0,181.11S81.24,0,181.11,0s181.1,81.24,181.1,181.11S281,362.21,181.11,362.21Zm0-358.88c-98,0-177.78,79.75-177.78,177.78S83.08,358.88,181.11,358.88s177.77-79.75,177.77-177.77S279.13,3.33,181.11,3.33Z"/><path class="cls-1" d="M157.21,277.39h38v-97h26.63l2.84-32H195.21V129.17c0-7.72,1.54-10.78,9-10.78h21v-34H198.72c-28.61,0-41.51,12.72-41.51,37.06v25.94h-20v33h20Z"/></g></g></svg>