<svg xmlns="http://www.w3.org/2000/svg" viewBox="0 0 362.21 362.21"><defs><style>.cls-1{fill:#efefef;}</style></defs><g id="Layer_2" data-name="Layer 2"><g id="Layer_1-2" data-name="Layer 1"><path class="cls-1" d="M181.11,362.21C81.24,362.21,0,281,0,181.1S81.24,0,181.11,0s181.1,81.24,181.1,181.1S281,362.21,181.11,362.21Zm0-358.88C83.08,3.33,3.33,83.08,3.33,181.1S83.08,358.87,181.11,358.87,358.88,279.13,358.88,181.1,279.13,3.33,181.11,3.33Z"/><path class="cls-1" d="M181.11,109.59c23.29,0,26,.08,35.25.51,8.5.38,13.12,1.8,16.2,3a28.83,28.83,0,0,1,16.55,16.55c1.2,3.08,2.62,7.7,3,16.2.42,9.2.51,12,.51,35.26s-.09,26-.51,35.25c-.39,8.5-1.81,13.12-3,16.19a28.81,28.81,0,0,1-16.55,16.56c-3.08,1.2-7.7,2.62-16.2,3-9.2.41-12,.5-35.25.5s-26.06-.09-35.25-.5c-8.51-.39-13.13-1.81-16.2-3a28.86,28.86,0,0,1-16.56-16.56c-1.19-3.07-2.62-7.69-3-16.19-.42-9.2-.51-12-.51-35.25s.09-26.06.51-35.26c.38-8.5,1.81-13.12,3-16.2a28.88,28.88,0,0,1,16.56-16.55c3.07-1.2,7.69-2.62,16.2-3,9.19-.43,11.95-.51,35.25-.51m0-15.72c-23.7,0-26.67.1-36,.52s-15.63,1.9-21.18,4.06A44.59,44.59,0,0,0,98.45,124c-2.16,5.55-3.63,11.89-4,21.18s-.53,12.27-.53,36,.1,26.66.53,36,1.89,15.63,4,21.18A44.59,44.59,0,0,0,124,263.76c5.55,2.16,11.89,3.63,21.18,4.06s12.27.52,36,.52,26.66-.1,36-.52,15.63-1.9,21.18-4.06a44.59,44.59,0,0,0,25.51-25.51c2.16-5.55,3.63-11.89,4.06-21.18s.52-12.27.52-36-.1-26.67-.52-36-1.9-15.63-4.06-21.18a44.59,44.59,0,0,0-25.51-25.51c-5.55-2.16-11.89-3.63-21.18-4.06s-12.27-.52-36-.52"/><path class="cls-1" d="M181.11,136.31a44.8,44.8,0,1,0,44.79,44.8,44.8,44.8,0,0,0-44.79-44.8m0,73.87a29.08,29.08,0,1,1,29.07-29.07,29.08,29.08,0,0,1-29.07,29.07"/><path class="cls-1" d="M238.14,134.54a10.47,10.47,0,1,1-10.47-10.47,10.47,10.47,0,0,1,10.47,10.47"/></g></g></svg>