<svg xmlns="http://www.w3.org/2000/svg" viewBox="0 0 362.21 362.21"><defs><style>.cls-1{fill:#efefef;}</style></defs><g id="Layer_2" data-name="Layer 2"><g id="Layer_1-2" data-name="Layer 1"><path class="cls-1" d="M181.1,362.21C81.24,362.21,0,281,0,181.1S81.24,0,181.1,0,362.21,81.24,362.21,181.1,281,362.21,181.1,362.21Zm0-358.88C83.08,3.33,3.33,83.08,3.33,181.1S83.08,358.87,181.1,358.87,358.87,279.12,358.87,181.1,279.13,3.33,181.1,3.33Z"/><rect class="cls-1" x="104.21" y="146.09" width="33" height="106"/><path class="cls-1" d="M120.83,131.61A19.63,19.63,0,1,0,101.36,112,19.56,19.56,0,0,0,120.83,131.61Z"/><path class="cls-1" d="M190.21,196.25c0-15,6.88-23.87,20.07-23.87,12.11,0,17.93,8.55,17.93,23.87v55.84h33V184.73c0-28.49-16.21-42.27-38.84-42.27A37.21,37.21,0,0,0,190.21,160V146.09h-32v106h32Z"/></g></g></svg>