<svg xmlns="http://www.w3.org/2000/svg" viewBox="0 0 42.39 41.93"><defs><style>.cls-1{fill:#fff;}</style></defs><g id="Layer_2" data-name="Layer 2"><g id="OBJECTS"><path class="cls-1" d="M42.39,33.78A48,48,0,0,1,38,30.86a19.37,19.37,0,0,1-3-3.29c-2.69-3.68-3-6.54,2.08-8.18.43-.14.86-.4.55-1-5,.11-5.09,0-5-5.22,0-3.23.18-6.46-2.21-9.16-3.18-3.59-9-5-14-3.27C11.82,2.29,9.23,6.18,9.17,11.51c0,1.27,0,2.54.08,3.81.22,2.49-.95,3.35-3.31,3.1-.52-.06-1.34-.75-1.65.37,5.62,3.3,5.89,5.07,1.71,10-1.65,1.94-3.82,3.2-6,5,3.33-.12,4.27,3.89,7.35,3.73a12.53,12.53,0,0,1,8.06,2.56c3.49,2.42,7.13,2.33,10.75.23,1.6-.92,3.12-2.61,4.9-2.39C35.52,38.53,38.11,35,42.39,33.78Z"/></g></g></svg>