<svg xmlns="http://www.w3.org/2000/svg" viewBox="0 0 44.24 34.07"><defs><style>.cls-1{fill:#fff;}</style></defs><g id="Layer_2" data-name="Layer 2"><g id="OBJECTS"><path class="cls-1" d="M29.82,16.83a1.1,1.1,0,0,1,0,.31A.55.55,0,0,0,29.82,16.83Z"/><path class="cls-1" d="M22.12,0C.38,0,0,1.93,0,17s.38,17,22.12,17,22.12-1.94,22.12-17S43.86,0,22.12,0Zm7.05,18.15L19.19,23a1.21,1.21,0,0,1-1.74-1.09V12.45a1.21,1.21,0,0,1,1.72-1.09l10,4.6a1.17,1.17,0,0,1,.67.87.55.55,0,0,1,0,.31A1.19,1.19,0,0,1,29.17,18.15Z"/></g></g></svg>